<?xml version="1.0" encoding="UTF-8" standalone="no"?>
<!-- Created with Inkscape (http://www.inkscape.org/) -->

<svg
   xmlns:dc="http://purl.org/dc/elements/1.1/"
   xmlns:cc="http://creativecommons.org/ns#"
   xmlns:rdf="http://www.w3.org/1999/02/22-rdf-syntax-ns#"
   xmlns:svg="http://www.w3.org/2000/svg"
   xmlns="http://www.w3.org/2000/svg"
   xmlns:sodipodi="http://sodipodi.sourceforge.net/DTD/sodipodi-0.dtd"
   xmlns:inkscape="http://www.inkscape.org/namespaces/inkscape"
   width="68.56987mm"
   height="29.816248mm"
   viewBox="0 0 68.56987 29.816248"
   version="1.1"
   id="svg4699"
   inkscape:version="0.92.4 (5da689c313, 2019-01-14)"
   sodipodi:docname="charities-logo.svg">
  <defs
     id="defs4693" />
  <sodipodi:namedview
     id="base"
     pagecolor="#ffffff"
     bordercolor="#666666"
     borderopacity="1.0"
     inkscape:pageopacity="0.0"
     inkscape:pageshadow="2"
     inkscape:zoom="1.4"
     inkscape:cx="97.861546"
     inkscape:cy="-51.753114"
     inkscape:document-units="mm"
     inkscape:current-layer="layer1"
     showgrid="false"
     inkscape:window-width="1920"
     inkscape:window-height="1027"
     inkscape:window-x="1912"
     inkscape:window-y="-8"
     inkscape:window-maximized="1"
     fit-margin-top="0"
     fit-margin-left="0"
     fit-margin-right="0"
     fit-margin-bottom="0" />
  <metadata
     id="metadata4696">
    <rdf:RDF>
      <cc:Work
         rdf:about="">
        <dc:format>image/svg+xml</dc:format>
        <dc:type
           rdf:resource="http://purl.org/dc/dcmitype/StillImage" />
        <dc:title />
      </cc:Work>
    </rdf:RDF>
  </metadata>
  <g
     inkscape:label="Layer 1"
     inkscape:groupmode="layer"
     id="layer1"
     transform="translate(-97.008782,-50.011034)">
    <path
       inkscape:connector-curvature="0"
       id="path817"
       style="font-style:normal;font-variant:normal;font-weight:normal;font-stretch:normal;font-size:12.69999981px;line-height:0.85000002;font-family:Georgia;-inkscape-font-specification:Georgia;letter-spacing:0px;word-spacing:0px;fill:#5e5a5b;fill-opacity:1;stroke:none;stroke-width:0.26458332"
       d="m 101.39653,59.213573 q -0.78755,0 -1.51309,-0.310059 -0.719336,-0.310058 -1.277442,-0.892969 -0.551904,-0.58291 -0.880566,-1.420068 -0.328662,-0.843359 -0.328662,-1.897559 0,-1.054199 0.322461,-1.90996 0.322461,-0.861963 0.892968,-1.482081 0.564307,-0.613916 1.333252,-0.948779 0.768949,-0.334863 1.643309,-0.334863 0.65112,0 1.17822,0.16123 0.5271,0.161231 1.00459,0.452686 l 0.25425,-0.42168 h 0.4961 l 0.0558,3.137793 h -0.5085 q -0.0992,-0.458887 -0.29766,-0.992187 -0.19843,-0.539502 -0.46508,-0.911573 -0.29766,-0.421679 -0.70694,-0.657324 -0.40927,-0.241845 -0.93637,-0.241845 -0.60152,0 -1.12242,0.26665 -0.51469,0.26665 -0.892965,0.787549 -0.359668,0.502295 -0.564307,1.277441 -0.204638,0.775147 -0.204638,1.730127 0,0.843359 0.21084,1.550293 0.217041,0.700732 0.613916,1.234033 0.396874,0.5271 0.936374,0.824756 0.54571,0.297656 1.21543,0.297656 0.5023,0 0.92398,-0.155029 0.42168,-0.16123 0.73174,-0.42168 0.31005,-0.272851 0.5457,-0.620117 0.23564,-0.347265 0.38447,-0.756543 l 0.46509,0.223242 q -0.5333,1.308448 -1.41387,1.872754 -0.88056,0.558106 -2.09599,0.558106 z" />
    <path
       inkscape:connector-curvature="0"
       id="path819"
       style="font-style:normal;font-variant:normal;font-weight:normal;font-stretch:normal;font-size:12.69999981px;line-height:0.85000002;font-family:Georgia;-inkscape-font-specification:Georgia;letter-spacing:0px;word-spacing:0px;fill:#5e5a5b;fill-opacity:1;stroke:none;stroke-width:0.26458332"
       d="m 114.79106,59.008934 h -3.65249 v -0.440283 q 0.14882,-0.0124 0.42788,-0.03721 0.28525,-0.02481 0.39067,-0.07441 0.18604,-0.07441 0.27285,-0.223242 0.0868,-0.15503 0.0868,-0.396875 v -3.131592 h -4.13618 V 57.7687 q 0,0.217041 0.0682,0.365869 0.0744,0.148828 0.28525,0.260449 0.10542,0.05581 0.37207,0.111621 0.27286,0.05581 0.42789,0.06201 v 0.440283 h -3.6525 v -0.440283 q 0.14883,-0.0124 0.42789,-0.03721 0.28525,-0.02481 0.39067,-0.07441 0.18603,-0.07441 0.27285,-0.223242 0.0868,-0.15503 0.0868,-0.396875 v -6.35 q 0,-0.198438 -0.0806,-0.359668 -0.0806,-0.167432 -0.27905,-0.26045 -0.16743,-0.08062 -0.40928,-0.142626 -0.23564,-0.06201 -0.40928,-0.07442 v -0.440283 h 3.6525 v 0.440283 q -0.17364,0.0062 -0.42789,0.05581 -0.24804,0.04961 -0.37207,0.09302 -0.21084,0.07441 -0.28525,0.248046 -0.0682,0.173633 -0.0682,0.378272 v 2.728516 h 4.13618 v -2.666504 q 0,-0.198438 -0.0806,-0.359668 -0.0806,-0.167432 -0.27905,-0.26045 -0.16743,-0.08062 -0.40928,-0.142626 -0.23564,-0.06201 -0.40927,-0.07442 v -0.440283 h 3.65249 v 0.440283 q -0.17364,0.0062 -0.42788,0.05581 -0.24805,0.04961 -0.37207,0.09302 -0.21084,0.07441 -0.28526,0.248046 -0.0682,0.173633 -0.0682,0.378272 V 57.7687 q 0,0.217041 0.0682,0.365869 0.0744,0.148828 0.28526,0.260449 0.10542,0.05581 0.37207,0.111621 0.27285,0.05581 0.42788,0.06201 z" />
    <path
       inkscape:connector-curvature="0"
       id="path821"
       style="font-style:normal;font-variant:normal;font-weight:normal;font-stretch:normal;font-size:12.69999981px;line-height:0.85000002;font-family:Georgia;-inkscape-font-specification:Georgia;letter-spacing:0px;word-spacing:0px;fill:#5e5a5b;fill-opacity:1;stroke:none;stroke-width:0.26458332"
       d="m 124.22924,59.008934 h -3.66489 v -0.440283 q 0.48369,-0.03101 0.79995,-0.124024 0.32246,-0.09302 0.32246,-0.229443 0,-0.05581 -0.0124,-0.136426 -0.0124,-0.08062 -0.0372,-0.142627 l -0.73174,-1.971972 h -3.08198 q -0.17363,0.434082 -0.28526,0.756543 -0.10542,0.322461 -0.19223,0.595312 -0.0806,0.266651 -0.11162,0.434082 -0.031,0.167432 -0.031,0.272852 0,0.248047 0.39067,0.384472 0.39068,0.136426 0.88057,0.161231 v 0.440283 h -3.31142 v -0.440283 q 0.16123,-0.0124 0.40307,-0.06821 0.24185,-0.06201 0.39688,-0.161231 0.24804,-0.167431 0.38447,-0.347265 0.13643,-0.186035 0.26665,-0.508496 0.66353,-1.655713 1.46348,-3.720703 0.79995,-2.064991 1.42627,-3.677295 h 0.49609 l 2.93315,7.590234 q 0.093,0.241846 0.21084,0.390674 0.11783,0.148828 0.32867,0.291455 0.14262,0.08682 0.37207,0.148828 0.22944,0.05581 0.38447,0.06201 z m -3.54707,-3.59668 -1.33325,-3.410644 -1.30845,3.410644 z" />
    <path
       inkscape:connector-curvature="0"
       id="path823"
       style="font-style:normal;font-variant:normal;font-weight:normal;font-stretch:normal;font-size:12.69999981px;line-height:0.85000002;font-family:Georgia;-inkscape-font-specification:Georgia;letter-spacing:0px;word-spacing:0px;fill:#5e5a5b;fill-opacity:1;stroke:none;stroke-width:0.26458332"
       d="m 133.12792,59.008934 h -2.36885 q -0.78754,-1.234033 -1.42627,-2.133203 -0.63251,-0.89917 -1.37666,-1.85415 h -0.89917 v 2.790527 q 0,0.217041 0.0682,0.384473 0.0682,0.16123 0.29145,0.248046 0.11162,0.04341 0.39068,0.08062 0.27905,0.03721 0.47129,0.04341 v 0.440283 h -3.72071 v -0.440283 q 0.14883,-0.0124 0.42788,-0.04341 0.28526,-0.03101 0.39688,-0.08062 0.18603,-0.08061 0.26665,-0.235644 0.0868,-0.155029 0.0868,-0.396875 v -6.362402 q 0,-0.217041 -0.062,-0.384473 -0.062,-0.167432 -0.29145,-0.254248 -0.15503,-0.05581 -0.40308,-0.09922 -0.24804,-0.04961 -0.42168,-0.06201 v -0.440283 h 4.06177 q 0.55811,0 1.048,0.117823 0.48989,0.111621 0.88677,0.365869 0.38447,0.248047 0.61391,0.651123 0.22944,0.396875 0.22944,0.961181 0,0.508496 -0.15502,0.89917 -0.15503,0.390674 -0.45889,0.675928 -0.27905,0.26665 -0.66973,0.465088 -0.39067,0.192236 -0.86196,0.328662 0.65112,0.861963 1.079,1.451074 0.43409,0.589111 1.0604,1.432471 0.27286,0.37207 0.4899,0.551904 0.22324,0.173633 0.44028,0.285254 0.16123,0.08062 0.40308,0.124023 0.24184,0.04341 0.40307,0.04961 z m -3.26181,-6.56084 q 0,-0.799951 -0.45889,-1.265039 -0.45889,-0.471289 -1.29605,-0.471289 h -1.0542 v 3.776514 h 0.81236 q 0.85576,0 1.42627,-0.545703 0.57051,-0.551905 0.57051,-1.494483 z" />
    <path
       inkscape:connector-curvature="0"
       id="path825"
       style="font-style:normal;font-variant:normal;font-weight:normal;font-stretch:normal;font-size:12.69999981px;line-height:0.85000002;font-family:Georgia;-inkscape-font-specification:Georgia;letter-spacing:0px;word-spacing:0px;fill:#5e5a5b;fill-opacity:1;stroke:none;stroke-width:0.26458332"
       d="m 137.30751,59.008934 h -3.96255 v -0.440283 q 0.16743,-0.0124 0.48369,-0.03721 0.31626,-0.02481 0.44649,-0.07441 0.20464,-0.08062 0.29765,-0.217041 0.093,-0.142627 0.093,-0.390674 V 51.47451 q 0,-0.217041 -0.0682,-0.359668 -0.0682,-0.148828 -0.32246,-0.248047 -0.18604,-0.07441 -0.47129,-0.136425 -0.27906,-0.06821 -0.45889,-0.08062 v -0.440283 h 3.96255 v 0.440283 q -0.19224,0.0062 -0.45889,0.04961 -0.26665,0.03721 -0.46509,0.09922 -0.23564,0.07441 -0.31625,0.241845 -0.0806,0.167432 -0.0806,0.372071 v 6.368603 q 0,0.204639 0.0868,0.365869 0.093,0.155029 0.31005,0.248047 0.13023,0.04961 0.42168,0.111621 0.29766,0.05581 0.5023,0.06201 z" />
    <path
       inkscape:connector-curvature="0"
       id="path827"
       style="font-style:normal;font-variant:normal;font-weight:normal;font-stretch:normal;font-size:12.69999981px;line-height:0.85000002;font-family:Georgia;-inkscape-font-specification:Georgia;letter-spacing:0px;word-spacing:0px;fill:#5e5a5b;fill-opacity:1;stroke:none;stroke-width:0.26458332"
       d="m 145.57367,52.596922 h -0.42788 q -0.0558,-0.223242 -0.20464,-0.527099 -0.14262,-0.310059 -0.32246,-0.58291 -0.18603,-0.285254 -0.40928,-0.496094 -0.21704,-0.217041 -0.42168,-0.248047 -0.19223,-0.02481 -0.48369,-0.03721 -0.29145,-0.0124 -0.5395,-0.0124 h -0.35967 v 7.03833 q 0,0.204638 0.0868,0.378271 0.0868,0.167432 0.30386,0.260449 0.11162,0.04341 0.46508,0.117823 0.35967,0.07441 0.55811,0.08062 v 0.440283 h -4.15479 v -0.440283 q 0.17364,-0.0124 0.5271,-0.04961 0.35967,-0.03721 0.4961,-0.09302 0.20464,-0.08062 0.29765,-0.229443 0.0992,-0.15503 0.0992,-0.409278 v -7.09414 h -0.35966 q -0.19224,0 -0.47749,0.0124 -0.28526,0.0062 -0.54571,0.03721 -0.20464,0.02481 -0.42788,0.248047 -0.21704,0.217041 -0.40308,0.496094 -0.18603,0.279052 -0.32866,0.595312 -0.14262,0.310059 -0.19843,0.514697 h -0.43409 v -2.387451 h 7.66465 z" />
    <path
       inkscape:connector-curvature="0"
       id="path829"
       style="font-style:normal;font-variant:normal;font-weight:normal;font-stretch:normal;font-size:12.69999981px;line-height:0.85000002;font-family:Georgia;-inkscape-font-specification:Georgia;letter-spacing:0px;word-spacing:0px;fill:#5e5a5b;fill-opacity:1;stroke:none;stroke-width:0.26458332"
       d="m 150.13153,59.008934 h -3.96255 v -0.440283 q 0.16744,-0.0124 0.4837,-0.03721 0.31626,-0.02481 0.44648,-0.07441 0.20464,-0.08062 0.29766,-0.217041 0.093,-0.142627 0.093,-0.390674 V 51.47451 q 0,-0.217041 -0.0682,-0.359668 -0.0682,-0.148828 -0.32246,-0.248047 -0.18603,-0.07441 -0.47129,-0.136425 -0.27905,-0.06821 -0.45889,-0.08062 v -0.440283 h 3.96255 v 0.440283 q -0.19223,0.0062 -0.45888,0.04961 -0.26665,0.03721 -0.46509,0.09922 -0.23565,0.07441 -0.31626,0.241845 -0.0806,0.167432 -0.0806,0.372071 v 6.368603 q 0,0.204639 0.0868,0.365869 0.093,0.155029 0.31006,0.248047 0.13022,0.04961 0.42168,0.111621 0.29766,0.05581 0.50229,0.06201 z" />
    <path
       inkscape:connector-curvature="0"
       id="path831"
       style="font-style:normal;font-variant:normal;font-weight:normal;font-stretch:normal;font-size:12.69999981px;line-height:0.85000002;font-family:Georgia;-inkscape-font-specification:Georgia;letter-spacing:0px;word-spacing:0px;fill:#5e5a5b;fill-opacity:1;stroke:none;stroke-width:0.26458332"
       d="m 158.64574,56.416844 -0.16743,2.59209 h -7.30498 v -0.440283 q 0.18604,-0.0124 0.49609,-0.04961 0.31006,-0.04341 0.40308,-0.08682 0.19844,-0.09302 0.27285,-0.241846 0.0806,-0.148828 0.0806,-0.378271 v -6.325195 q 0,-0.204639 -0.0682,-0.359668 -0.0682,-0.161231 -0.28525,-0.26045 -0.16743,-0.08062 -0.45268,-0.142626 -0.27906,-0.06201 -0.44649,-0.07442 v -0.440283 h 6.80889 v 2.120801 h -0.46509 q -0.12402,-0.471289 -0.5395,-0.998389 -0.40928,-0.5333 -0.78135,-0.58291 -0.19224,-0.0248 -0.45889,-0.03721 -0.26665,-0.0124 -0.60771,-0.0124 h -1.38286 v 3.497461 h 0.99218 q 0.47749,0 0.69454,-0.08682 0.22324,-0.09302 0.39067,-0.303857 0.13643,-0.179834 0.22944,-0.47749 0.0992,-0.303858 0.13023,-0.570508 h 0.46509 v 3.44165 h -0.46509 q -0.0248,-0.297656 -0.13643,-0.626318 -0.10542,-0.334863 -0.22324,-0.483692 -0.19224,-0.241845 -0.44028,-0.316259 -0.24185,-0.07441 -0.64493,-0.07441 h -0.99218 v 2.641699 q 0,0.396875 0.0558,0.626318 0.0558,0.229444 0.21704,0.347266 0.16123,0.117822 0.44028,0.155029 0.27905,0.03101 0.79375,0.03101 0.20464,0 0.5395,0 0.33487,0 0.56431,-0.02481 0.23564,-0.0248 0.48369,-0.08682 0.25425,-0.06821 0.35967,-0.179834 0.28525,-0.297656 0.59531,-0.89917 0.31626,-0.607715 0.40308,-0.892969 z" />
    <path
       inkscape:connector-curvature="0"
       id="path833"
       style="font-style:normal;font-variant:normal;font-weight:normal;font-stretch:normal;font-size:12.69999981px;line-height:0.85000002;font-family:Georgia;-inkscape-font-specification:Georgia;letter-spacing:0px;word-spacing:0px;fill:#5e5a5b;fill-opacity:1;stroke:none;stroke-width:0.26458332"
       d="m 165.03295,54.971971 q 0.27905,0.310059 0.40928,0.682129 0.13642,0.365869 0.13642,0.855762 0,1.16582 -0.86196,1.922363 -0.86196,0.756543 -2.1394,0.756543 -0.58912,0 -1.17823,-0.179834 -0.58911,-0.186035 -1.01699,-0.446484 l -0.26665,0.452685 h -0.49609 l -0.0868,-3.013769 h 0.5023 q 0.15502,0.558105 0.35966,1.010791 0.21084,0.446484 0.55191,0.837158 0.32246,0.365869 0.75034,0.58291 0.43408,0.217041 1.00459,0.217041 0.42788,0 0.74414,-0.111621 0.32246,-0.111621 0.5209,-0.31626 0.19844,-0.204638 0.29145,-0.47749 0.0992,-0.279053 0.0992,-0.638721 0,-0.527099 -0.29765,-0.979785 -0.29766,-0.458887 -0.88677,-0.694531 -0.40308,-0.161231 -0.92398,-0.353467 -0.52089,-0.198437 -0.89917,-0.37207 -0.74414,-0.334863 -1.15962,-0.874365 -0.40927,-0.545704 -0.40927,-1.420069 0,-0.502295 0.20464,-0.936377 0.20463,-0.434082 0.58291,-0.775146 0.35966,-0.322461 0.84956,-0.502295 0.48989,-0.186035 1.02319,-0.186035 0.60771,0 1.0852,0.186035 0.4837,0.186035 0.88057,0.434082 l 0.25425,-0.42168 h 0.49609 l 0.0496,2.920752 h -0.50229 q -0.13643,-0.502295 -0.31006,-0.961181 -0.16743,-0.458887 -0.44028,-0.830957 -0.26665,-0.359668 -0.65113,-0.570508 -0.38447,-0.217041 -0.94258,-0.217041 -0.58911,0 -1.00459,0.378271 -0.41547,0.378272 -0.41547,0.923975 0,0.570508 0.26665,0.948779 0.26665,0.37207 0.77514,0.613916 0.45269,0.217041 0.88677,0.378272 0.44028,0.155029 0.84956,0.334863 0.37207,0.16123 0.71314,0.365869 0.34726,0.204639 0.60151,0.47749 z" />
    <path
       inkscape:connector-curvature="0"
       id="path835"
       style="font-style:normal;font-variant:normal;font-weight:normal;font-stretch:normal;font-size:12.69999981px;line-height:0.85000002;font-family:Georgia;-inkscape-font-specification:Georgia;letter-spacing:0px;word-spacing:0px;fill:#5e5a5b;fill-opacity:1;stroke:none;stroke-width:0.26458332"
       d="m 102.99643,66.766971 q 0.27905,0.310059 0.40928,0.682129 0.13642,0.365869 0.13642,0.855762 0,1.16582 -0.86196,1.922363 -0.86196,0.756543 -2.13941,0.756543 -0.589108,0 -1.178219,-0.179834 -0.589111,-0.186035 -1.016992,-0.446484 l -0.26665,0.452685 h -0.496094 l -0.08682,-3.013769 h 0.502295 q 0.15503,0.558105 0.359668,1.010791 0.21084,0.446484 0.551905,0.837158 0.322461,0.365869 0.750341,0.58291 0.434086,0.217041 1.004596,0.217041 0.42788,0 0.74414,-0.111621 0.32246,-0.111621 0.5209,-0.31626 0.19843,-0.204638 0.29145,-0.47749 0.0992,-0.279053 0.0992,-0.638721 0,-0.527099 -0.29766,-0.979785 -0.29765,-0.458886 -0.88676,-0.694531 -0.40308,-0.16123 -0.92398,-0.353467 -0.5209,-0.198437 -0.899171,-0.37207 -0.744141,-0.334863 -1.159619,-0.874365 -0.409278,-0.545703 -0.409278,-1.420069 0,-0.502295 0.204639,-0.936377 0.204639,-0.434082 0.58291,-0.775146 0.359668,-0.322461 0.849561,-0.502295 0.489892,-0.186035 1.023198,-0.186035 0.60771,0 1.0852,0.186035 0.48369,0.186035 0.88057,0.434082 l 0.25425,-0.42168 h 0.49609 l 0.0496,2.920752 h -0.50229 q -0.13643,-0.502295 -0.31006,-0.961181 -0.16743,-0.458887 -0.44029,-0.830957 -0.26665,-0.359668 -0.65112,-0.570508 -0.38447,-0.217041 -0.94258,-0.217041 -0.589112,0 -1.00459,0.378271 -0.415479,0.378272 -0.415479,0.923975 0,0.570508 0.266651,0.948779 0.26665,0.372071 0.775146,0.613916 0.452692,0.217041 0.886772,0.378272 0.44028,0.155029 0.84956,0.334863 0.37207,0.16123 0.71313,0.365869 0.34727,0.204639 0.60152,0.47749 z" />
    <path
       inkscape:connector-curvature="0"
       id="path837"
       style="font-style:normal;font-variant:normal;font-weight:normal;font-stretch:normal;font-size:12.69999981px;line-height:0.85000002;font-family:Georgia;-inkscape-font-specification:Georgia;letter-spacing:0px;word-spacing:0px;fill:#5e5a5b;fill-opacity:1;stroke:none;stroke-width:0.26458332"
       d="m 112.03774,68.211844 -0.16744,2.59209 h -7.30498 v -0.440283 q 0.18604,-0.0124 0.4961,-0.04961 0.31006,-0.04341 0.40307,-0.08682 0.19844,-0.09302 0.27286,-0.241846 0.0806,-0.148828 0.0806,-0.378271 v -6.325195 q 0,-0.204639 -0.0682,-0.359668 -0.0682,-0.161231 -0.28526,-0.260449 -0.16743,-0.08062 -0.45268,-0.142627 -0.27905,-0.06201 -0.44649,-0.07441 v -0.440284 h 6.80889 v 2.120801 h -0.46509 q -0.12402,-0.471289 -0.5395,-0.998389 -0.40928,-0.5333 -0.78135,-0.58291 -0.19223,-0.0248 -0.45888,-0.03721 -0.26665,-0.0124 -0.60772,-0.0124 h -1.38286 v 3.497461 h 0.99219 q 0.47749,0 0.69453,-0.08682 0.22324,-0.09302 0.39067,-0.303857 0.13643,-0.179834 0.22945,-0.47749 0.0992,-0.303858 0.13022,-0.570508 h 0.46509 v 3.44165 h -0.46509 q -0.0248,-0.297656 -0.13642,-0.626318 -0.10542,-0.334863 -0.22325,-0.483691 -0.19223,-0.241846 -0.44028,-0.31626 -0.24185,-0.07441 -0.64492,-0.07441 h -0.99219 v 2.641699 q 0,0.396875 0.0558,0.626318 0.0558,0.229444 0.21704,0.347266 0.16123,0.117822 0.44029,0.155029 0.27905,0.03101 0.79375,0.03101 0.20463,0 0.5395,0 0.33486,0 0.5643,-0.02481 0.23565,-0.0248 0.4837,-0.08682 0.25424,-0.06821 0.35966,-0.179834 0.28526,-0.297656 0.59532,-0.89917 0.31626,-0.607715 0.40307,-0.892969 z" />
    <path
       inkscape:connector-curvature="0"
       id="path839"
       style="font-style:normal;font-variant:normal;font-weight:normal;font-stretch:normal;font-size:12.69999981px;line-height:0.85000002;font-family:Georgia;-inkscape-font-specification:Georgia;letter-spacing:0px;word-spacing:0px;fill:#5e5a5b;fill-opacity:1;stroke:none;stroke-width:0.26458332"
       d="m 121.51933,70.803934 h -2.36885 q -0.78755,-1.234033 -1.42627,-2.133203 -0.63252,-0.89917 -1.37666,-1.85415 h -0.89917 v 2.790527 q 0,0.217041 0.0682,0.384473 0.0682,0.16123 0.29146,0.248047 0.11162,0.04341 0.39067,0.08062 0.27906,0.03721 0.47129,0.04341 v 0.440283 h -3.7207 v -0.440283 q 0.14883,-0.0124 0.42788,-0.04341 0.28525,-0.03101 0.39687,-0.08062 0.18604,-0.08062 0.26665,-0.235645 0.0868,-0.155029 0.0868,-0.396875 v -6.362402 q 0,-0.217041 -0.062,-0.384473 -0.062,-0.167432 -0.29146,-0.254248 -0.15502,-0.05581 -0.40307,-0.09922 -0.24805,-0.04961 -0.42168,-0.06201 v -0.440284 h 4.06177 q 0.5581,0 1.04799,0.117823 0.4899,0.111621 0.88677,0.365869 0.38447,0.248047 0.61392,0.651123 0.22944,0.396875 0.22944,0.961181 0,0.508497 -0.15503,0.89917 -0.15503,0.390674 -0.45888,0.675928 -0.27906,0.26665 -0.66973,0.465088 -0.39068,0.192236 -0.86196,0.328662 0.65112,0.861963 1.079,1.451074 0.43408,0.589112 1.0604,1.432471 0.27285,0.37207 0.48989,0.551904 0.22324,0.173633 0.44029,0.285254 0.16123,0.08062 0.40307,0.124024 0.24185,0.04341 0.40308,0.04961 z m -3.26182,-6.56084 q 0,-0.799951 -0.45889,-1.265039 -0.45888,-0.471289 -1.29604,-0.471289 h -1.0542 v 3.776514 h 0.81235 q 0.85577,0 1.42627,-0.545703 0.57051,-0.551904 0.57051,-1.494483 z" />
    <path
       inkscape:connector-curvature="0"
       id="path841"
       style="font-style:normal;font-variant:normal;font-weight:normal;font-stretch:normal;font-size:12.69999981px;line-height:0.85000002;font-family:Georgia;-inkscape-font-specification:Georgia;letter-spacing:0px;word-spacing:0px;fill:#5e5a5b;fill-opacity:1;stroke:none;stroke-width:0.26458332"
       d="m 129.97152,62.444755 q -0.16123,0.0062 -0.39067,0.07441 -0.22944,0.06201 -0.37827,0.155029 -0.21084,0.130225 -0.34107,0.334863 -0.12402,0.204639 -0.24804,0.483692 -0.41548,0.985986 -1.24644,3.075781 -0.83096,2.083594 -1.71152,4.347021 h -0.5147 q -0.89297,-2.399853 -1.72392,-4.626074 -0.83096,-2.226221 -1.12862,-3.007568 -0.0744,-0.192237 -0.19844,-0.334863 -0.12402,-0.148829 -0.32866,-0.279053 -0.16743,-0.10542 -0.37207,-0.15503 -0.20464,-0.05581 -0.37827,-0.06821 v -0.440284 h 3.64009 v 0.440284 q -0.46509,0.0248 -0.78755,0.09302 -0.31626,0.06821 -0.31626,0.241846 0,0.06821 0.0248,0.16123 0.0248,0.09302 0.0434,0.148828 0.22945,0.607715 0.74414,1.984375 0.5147,1.370459 1.46348,3.906739 0.47129,-1.147217 1.08521,-2.709912 0.61391,-1.562696 0.82475,-2.145606 0.20464,-0.564306 0.23565,-0.781347 0.0372,-0.217042 0.0372,-0.353467 0,-0.142627 -0.13022,-0.235645 -0.12403,-0.09922 -0.33487,-0.167431 -0.20463,-0.06201 -0.41547,-0.09302 -0.21084,-0.03101 -0.42788,-0.04961 v -0.440284 h 3.27421 z" />
    <path
       inkscape:connector-curvature="0"
       id="path843"
       style="font-style:normal;font-variant:normal;font-weight:normal;font-stretch:normal;font-size:12.69999981px;line-height:0.85000002;font-family:Georgia;-inkscape-font-specification:Georgia;letter-spacing:0px;word-spacing:0px;fill:#5e5a5b;fill-opacity:1;stroke:none;stroke-width:0.26458332"
       d="m 134.15731,70.803934 h -3.96255 v -0.440283 q 0.16744,-0.0124 0.4837,-0.03721 0.31626,-0.02481 0.44648,-0.07441 0.20464,-0.08062 0.29766,-0.217041 0.093,-0.142627 0.093,-0.390674 V 63.26951 q 0,-0.217041 -0.0682,-0.359668 -0.0682,-0.148828 -0.32246,-0.248046 -0.18603,-0.07441 -0.47129,-0.136426 -0.27905,-0.06821 -0.45889,-0.08062 v -0.440284 h 3.96255 v 0.440284 q -0.19223,0.0062 -0.45888,0.04961 -0.26665,0.03721 -0.46509,0.09922 -0.23565,0.07441 -0.31626,0.241845 -0.0806,0.167432 -0.0806,0.372071 v 6.368603 q 0,0.204639 0.0868,0.365869 0.093,0.15503 0.31006,0.248047 0.13022,0.04961 0.42168,0.111621 0.29765,0.05581 0.50229,0.06201 z" />
    <path
       inkscape:connector-curvature="0"
       id="path845"
       style="font-style:normal;font-variant:normal;font-weight:normal;font-stretch:normal;font-size:12.69999981px;line-height:0.85000002;font-family:Georgia;-inkscape-font-specification:Georgia;letter-spacing:0px;word-spacing:0px;fill:#5e5a5b;fill-opacity:1;stroke:none;stroke-width:0.26458332"
       d="m 139.14926,71.008573 q -0.78755,0 -1.51309,-0.310059 -0.71934,-0.310058 -1.27744,-0.892968 -0.5519,-0.582911 -0.88057,-1.420069 -0.32866,-0.843359 -0.32866,-1.897558 0,-1.0542 0.32246,-1.909961 0.32246,-0.861963 0.89297,-1.48208 0.56431,-0.613916 1.33325,-0.94878 0.76895,-0.334863 1.64331,-0.334863 0.65113,0 1.17823,0.161231 0.5271,0.16123 1.00459,0.452685 l 0.25424,-0.42168 h 0.4961 l 0.0558,3.137793 h -0.5085 q -0.0992,-0.458886 -0.29765,-0.992187 -0.19844,-0.539502 -0.46509,-0.911572 -0.29766,-0.42168 -0.70694,-0.657325 -0.40927,-0.241845 -0.93637,-0.241845 -0.60152,0 -1.12241,0.26665 -0.5147,0.26665 -0.89297,0.787549 -0.35967,0.502295 -0.56431,1.277441 -0.20464,0.775147 -0.20464,1.730127 0,0.84336 0.21084,1.550293 0.21704,0.700733 0.61392,1.234033 0.39687,0.5271 0.93637,0.824756 0.54571,0.297656 1.21543,0.297656 0.5023,0 0.92398,-0.155029 0.42168,-0.16123 0.73174,-0.42168 0.31005,-0.272851 0.5457,-0.620117 0.23564,-0.347265 0.38447,-0.756543 l 0.46509,0.223242 q -0.5333,1.308448 -1.41387,1.872754 -0.88056,0.558106 -2.09599,0.558106 z" />
    <path
       inkscape:connector-curvature="0"
       id="path847"
       style="font-style:normal;font-variant:normal;font-weight:normal;font-stretch:normal;font-size:12.69999981px;line-height:0.85000002;font-family:Georgia;-inkscape-font-specification:Georgia;letter-spacing:0px;word-spacing:0px;fill:#5e5a5b;fill-opacity:1;stroke:none;stroke-width:0.26458332"
       d="m 150.83227,68.211844 -0.16744,2.59209 h -7.30498 v -0.440283 q 0.18604,-0.0124 0.4961,-0.04961 0.31006,-0.04341 0.40307,-0.08682 0.19844,-0.09302 0.27286,-0.241846 0.0806,-0.148828 0.0806,-0.378271 v -6.325195 q 0,-0.204639 -0.0682,-0.359668 -0.0682,-0.161231 -0.28526,-0.260449 -0.16743,-0.08062 -0.45268,-0.142627 -0.27905,-0.06201 -0.44649,-0.07441 v -0.440284 h 6.80889 v 2.120801 h -0.46509 q -0.12402,-0.471289 -0.5395,-0.998389 -0.40928,-0.5333 -0.78135,-0.58291 -0.19223,-0.0248 -0.45888,-0.03721 -0.26665,-0.0124 -0.60772,-0.0124 h -1.38286 v 3.497461 h 0.99219 q 0.47749,0 0.69453,-0.08682 0.22324,-0.09302 0.39067,-0.303857 0.13643,-0.179834 0.22945,-0.47749 0.0992,-0.303858 0.13022,-0.570508 h 0.46509 v 3.44165 h -0.46509 q -0.0248,-0.297656 -0.13642,-0.626318 -0.10542,-0.334863 -0.22325,-0.483691 -0.19223,-0.241846 -0.44028,-0.31626 -0.24185,-0.07441 -0.64492,-0.07441 h -0.99219 v 2.641699 q 0,0.396875 0.0558,0.626318 0.0558,0.229444 0.21704,0.347266 0.16123,0.117822 0.44029,0.155029 0.27905,0.03101 0.79375,0.03101 0.20463,0 0.5395,0 0.33486,0 0.5643,-0.02481 0.23565,-0.0248 0.4837,-0.08682 0.25424,-0.06821 0.35966,-0.179834 0.28526,-0.297656 0.59532,-0.89917 0.31626,-0.607715 0.40307,-0.892969 z" />
    <path
       inkscape:connector-curvature="0"
       id="path849"
       style="font-style:normal;font-variant:normal;font-weight:normal;font-stretch:normal;font-size:12.69999981px;line-height:0.85000002;font-family:Georgia;-inkscape-font-specification:Georgia;letter-spacing:0px;word-spacing:0px;fill:#5e5a5b;fill-opacity:1;stroke:none;stroke-width:0.26458332"
       d="m 157.21947,66.766971 q 0.27906,0.310059 0.40928,0.682129 0.13643,0.365869 0.13643,0.855762 0,1.16582 -0.86197,1.922363 -0.86196,0.756543 -2.1394,0.756543 -0.58911,0 -1.17822,-0.179834 -0.58911,-0.186035 -1.017,-0.446484 l -0.26665,0.452685 h -0.49609 l -0.0868,-3.013769 h 0.5023 q 0.15503,0.558105 0.35967,1.010791 0.21084,0.446484 0.5519,0.837158 0.32246,0.365869 0.75034,0.58291 0.43408,0.217041 1.00459,0.217041 0.42788,0 0.74414,-0.111621 0.32246,-0.111621 0.5209,-0.31626 0.19844,-0.204638 0.29146,-0.47749 0.0992,-0.279053 0.0992,-0.638721 0,-0.527099 -0.29766,-0.979785 -0.29766,-0.458886 -0.88677,-0.694531 -0.40307,-0.16123 -0.92397,-0.353467 -0.5209,-0.198437 -0.89917,-0.37207 -0.74414,-0.334863 -1.15962,-0.874365 -0.40928,-0.545703 -0.40928,-1.420069 0,-0.502295 0.20464,-0.936377 0.20464,-0.434082 0.58291,-0.775146 0.35967,-0.322461 0.84956,-0.502295 0.48989,-0.186035 1.02319,-0.186035 0.60772,0 1.08521,0.186035 0.48369,0.186035 0.88056,0.434082 l 0.25425,-0.42168 h 0.4961 l 0.0496,2.920752 h -0.5023 q -0.13642,-0.502295 -0.31006,-0.961181 -0.16743,-0.458887 -0.44028,-0.830957 -0.26665,-0.359668 -0.65112,-0.570508 -0.38448,-0.217041 -0.94258,-0.217041 -0.58911,0 -1.00459,0.378271 -0.41548,0.378272 -0.41548,0.923975 0,0.570508 0.26665,0.948779 0.26665,0.372071 0.77515,0.613916 0.45268,0.217041 0.88676,0.378272 0.44029,0.155029 0.84956,0.334863 0.37208,0.16123 0.71314,0.365869 0.34727,0.204639 0.60151,0.47749 z" />
    <path
       inkscape:connector-curvature="0"
       id="path869"
       style="font-style:normal;font-variant:normal;font-weight:normal;font-stretch:normal;font-size:4.93888903px;line-height:1.25;font-family:Georgia;-inkscape-font-specification:Georgia;letter-spacing:0px;word-spacing:0px;fill:#5e5a5b;fill-opacity:1;stroke:none;stroke-width:0.26458332"
       d="m 100.69848,75.505754 q -0.0675,0.0024 -0.20739,0.03858 -0.13988,0.03617 -0.20016,0.07476 -0.0868,0.06029 -0.11817,0.231511 -0.0289,0.171221 -0.0289,0.434082 v 2.505618 h -0.209807 l -2.073947,-2.799829 v 1.765267 q 0,0.296622 0.03617,0.455786 0.03859,0.159163 0.115755,0.226687 0.05547,0.05306 0.229099,0.09887 0.173633,0.04582 0.229099,0.04823 v 0.171221 H 97.06666 v -0.171221 q 0.06511,-0.0048 0.219453,-0.04582 0.15434,-0.04341 0.192925,-0.07717 0.08441,-0.06752 0.115755,-0.204983 0.03135,-0.139871 0.03135,-0.475079 v -1.685685 q 0,-0.110932 -0.03858,-0.221864 -0.03859,-0.110933 -0.103698,-0.171222 -0.08682,-0.07958 -0.236333,-0.135047 -0.147106,-0.05788 -0.238746,-0.0627 v -0.171221 h 0.976685 l 1.92443,2.609315 v -1.6278 q 0,-0.299034 -0.03858,-0.458197 -0.03858,-0.161575 -0.110932,-0.21463 -0.06752,-0.04582 -0.221864,-0.08923 -0.151929,-0.04341 -0.23151,-0.04823 v -0.171221 h 1.391475 z" />
    <path
       inkscape:connector-curvature="0"
       id="path871"
       style="font-style:normal;font-variant:normal;font-weight:normal;font-stretch:normal;font-size:4.93888903px;line-height:1.25;font-family:Georgia;-inkscape-font-specification:Georgia;letter-spacing:0px;word-spacing:0px;fill:#5e5a5b;fill-opacity:1;stroke:none;stroke-width:0.26458332"
       d="m 102.95329,78.510566 q 0.0965,0.09164 0.15193,0.207395 0.0555,0.115755 0.0555,0.286976 0,0.171222 -0.0748,0.320739 -0.0748,0.151929 -0.22669,0.262861 -0.16157,0.113343 -0.38585,0.176044 -0.22427,0.0627 -0.55466,0.0627 -0.54019,0 -0.80787,-0.159164 -0.26769,-0.156752 -0.26769,-0.460609 0,-0.24598 0.19293,-0.388262 0.19292,-0.142283 0.49196,-0.154341 v -0.03376 q -0.0724,-0.0217 -0.14952,-0.05306 -0.0772,-0.03376 -0.13263,-0.07717 -0.0627,-0.05064 -0.10129,-0.118167 -0.0386,-0.06994 -0.0386,-0.171221 0,-0.127813 0.0892,-0.233922 0.0916,-0.108521 0.27492,-0.185691 v -0.03617 q -0.23151,-0.108521 -0.35932,-0.27733 -0.12782,-0.171222 -0.12782,-0.395497 0,-0.33762 0.25081,-0.554661 0.25321,-0.217041 0.6463,-0.217041 0.10852,0 0.21463,0.0217 0.10852,0.0217 0.21945,0.05547 h 0.82958 v 0.231511 h -0.55948 v 0.01447 q 0.0892,0.103698 0.13263,0.229099 0.0434,0.125401 0.0434,0.24598 0,0.313504 -0.25563,0.530545 -0.25321,0.217041 -0.59083,0.217041 h -0.2918 q -0.0555,0.01929 -0.11576,0.06994 -0.0603,0.05064 -0.0603,0.137459 0,0.08923 0.0506,0.13746 0.0506,0.04582 0.12299,0.0627 0.0699,0.01929 0.16157,0.02412 0.094,0.0048 0.19293,0.0072 0.10611,0.0024 0.28939,0.01447 0.18569,0.01206 0.26286,0.01447 0.11093,0.0048 0.22186,0.05305 0.11335,0.04823 0.20498,0.132636 z M 102.30217,77.0998 q 0,-0.282154 -0.11575,-0.448552 -0.11335,-0.16881 -0.32074,-0.16881 -0.11335,0 -0.19534,0.04823 -0.0796,0.04582 -0.13022,0.132636 -0.0482,0.07958 -0.0699,0.192925 -0.0193,0.110932 -0.0193,0.229099 0,0.267684 0.11575,0.436494 0.11817,0.168809 0.30386,0.168809 0.2074,0 0.31833,-0.166398 0.11334,-0.168809 0.11334,-0.424435 z m 0.46302,1.994365 q 0,-0.135047 -0.0627,-0.221864 -0.0627,-0.08682 -0.19051,-0.118167 -0.0675,-0.0096 -0.27733,-0.0217 -0.20981,-0.01206 -0.48714,-0.01206 -0.26045,0.05064 -0.37138,0.168809 -0.10852,0.120579 -0.10852,0.308681 0,0.08441 0.0362,0.161575 0.0362,0.07717 0.1254,0.142282 0.0844,0.0627 0.22669,0.101286 0.14228,0.041 0.34727,0.041 0.3545,0 0.55707,-0.13746 0.20498,-0.135047 0.20498,-0.412378 z" />
    <path
       inkscape:connector-curvature="0"
       id="path873"
       style="font-style:normal;font-variant:normal;font-weight:normal;font-stretch:normal;font-size:4.93888903px;line-height:1.25;font-family:Georgia;-inkscape-font-specification:Georgia;letter-spacing:0px;word-spacing:0px;fill:#5e5a5b;fill-opacity:1;stroke:none;stroke-width:0.26458332"
       d="m 105.6856,78.713138 q -0.11334,0.041 -0.20016,0.06511 -0.0844,0.02653 -0.19293,0.02653 -0.1881,0 -0.30144,-0.08682 -0.11093,-0.08923 -0.14228,-0.258038 h -0.0145 q -0.15675,0.173633 -0.33762,0.265273 -0.17846,0.09164 -0.43167,0.09164 -0.26769,0 -0.44132,-0.163986 -0.17122,-0.163987 -0.17122,-0.429259 0,-0.13746 0.0386,-0.24598 0.0386,-0.108521 0.11576,-0.195337 0.0603,-0.07235 0.15916,-0.127813 0.0989,-0.05788 0.18569,-0.09164 0.10852,-0.041 0.43891,-0.151928 0.3328,-0.110932 0.44855,-0.173633 v -0.238745 q 0,-0.03135 -0.0145,-0.120579 -0.0121,-0.08923 -0.0555,-0.168809 -0.0482,-0.08923 -0.13745,-0.154341 -0.0868,-0.06752 -0.2484,-0.06752 -0.11093,0 -0.20739,0.03858 -0.0941,0.03617 -0.13264,0.07717 0,0.04823 0.0217,0.142282 0.0241,0.09405 0.0241,0.173633 0,0.08441 -0.0772,0.15434 -0.0748,0.06994 -0.2098,0.06994 -0.12058,0 -0.17846,-0.08441 -0.0555,-0.08682 -0.0555,-0.192925 0,-0.110933 0.0772,-0.212218 0.0796,-0.101286 0.20499,-0.180868 0.10852,-0.06752 0.26286,-0.113343 0.15434,-0.04823 0.30144,-0.04823 0.20258,0 0.35209,0.02894 0.15193,0.02653 0.27492,0.118167 0.12299,0.08923 0.18569,0.243568 0.0651,0.151929 0.0651,0.393085 0,0.344854 -0.007,0.612538 -0.007,0.265273 -0.007,0.581188 0,0.09405 0.0314,0.149517 0.0338,0.05547 0.10128,0.09405 0.0362,0.0217 0.11335,0.02412 0.0796,0.0024 0.16157,0.0024 z m -0.84164,-1.273308 q -0.20498,0.06029 -0.35932,0.118167 -0.15434,0.05788 -0.28698,0.144694 -0.12057,0.08199 -0.19051,0.195337 -0.0699,0.110932 -0.0699,0.265273 0,0.20016 0.1037,0.294211 0.10611,0.09405 0.26769,0.09405 0.17122,0 0.30144,-0.08199 0.13023,-0.08441 0.21945,-0.197749 z m 0.45579,-1.796617 h -1.65434 v -0.30868 h 1.65434 z" />
    <path
       inkscape:connector-curvature="0"
       id="path875"
       style="font-style:normal;font-variant:normal;font-weight:normal;font-stretch:normal;font-size:4.93888903px;line-height:1.25;font-family:Georgia;-inkscape-font-specification:Georgia;letter-spacing:0px;word-spacing:0px;fill:#5e5a5b;fill-opacity:1;stroke:none;stroke-width:0.26458332"
       d="m 110.51356,78.756546 h -0.92122 q -0.30627,-0.479902 -0.55466,-0.829579 -0.24598,-0.349677 -0.53537,-0.721059 h -0.34968 v 1.085206 q 0,0.0844 0.0265,0.149517 0.0265,0.0627 0.11334,0.09646 0.0434,0.01688 0.15193,0.03135 0.10852,0.01447 0.18328,0.01688 v 0.171221 h -1.44694 v -0.171221 q 0.0579,-0.0048 0.1664,-0.01688 0.11093,-0.01206 0.15434,-0.03135 0.0724,-0.03135 0.1037,-0.09164 0.0338,-0.06029 0.0338,-0.15434 v -2.474268 q 0,-0.08441 -0.0241,-0.149517 -0.0241,-0.06511 -0.11334,-0.09887 -0.0603,-0.0217 -0.15675,-0.03859 -0.0965,-0.01929 -0.16399,-0.02412 v -0.171221 h 1.57958 q 0.21704,0 0.40755,0.04582 0.19052,0.04341 0.34486,0.142283 0.14951,0.09646 0.23874,0.253214 0.0892,0.154341 0.0892,0.373793 0,0.197749 -0.0603,0.349677 -0.0603,0.151929 -0.17846,0.262861 -0.10852,0.103698 -0.26044,0.180868 -0.15193,0.07476 -0.33521,0.127813 0.25321,0.335208 0.41961,0.564306 0.16881,0.229099 0.41238,0.557072 0.10611,0.144694 0.19051,0.21463 0.0868,0.06752 0.17122,0.110932 0.0627,0.03135 0.15676,0.04823 0.0941,0.01688 0.15675,0.01929 z m -1.26849,-2.551438 q 0,-0.311092 -0.17845,-0.491959 -0.17846,-0.18328 -0.50402,-0.18328 h -0.40997 v 1.468645 h 0.31592 q 0.33279,0 0.55466,-0.212218 0.22186,-0.21463 0.22186,-0.581188 z" />
    <path
       inkscape:connector-curvature="0"
       id="path877"
       style="font-style:normal;font-variant:normal;font-weight:normal;font-stretch:normal;font-size:4.93888903px;line-height:1.25;font-family:Georgia;-inkscape-font-specification:Georgia;letter-spacing:0px;word-spacing:0px;fill:#5e5a5b;fill-opacity:1;stroke:none;stroke-width:0.26458332"
       d="m 112.83348,78.713138 q -0.11334,0.041 -0.20016,0.06511 -0.0844,0.02653 -0.19292,0.02653 -0.1881,0 -0.30145,-0.08682 -0.11093,-0.08923 -0.14228,-0.258038 h -0.0145 q -0.15675,0.173633 -0.33762,0.265273 -0.17845,0.09164 -0.43167,0.09164 -0.26768,0 -0.44132,-0.163986 -0.17122,-0.163987 -0.17122,-0.429259 0,-0.13746 0.0386,-0.24598 0.0386,-0.108521 0.11575,-0.195337 0.0603,-0.07235 0.15917,-0.127813 0.0989,-0.05788 0.18569,-0.09164 0.10852,-0.041 0.4389,-0.151928 0.3328,-0.110932 0.44855,-0.173633 v -0.238745 q 0,-0.03135 -0.0145,-0.120579 -0.0121,-0.08923 -0.0555,-0.168809 -0.0482,-0.08923 -0.13746,-0.154341 -0.0868,-0.06752 -0.24839,-0.06752 -0.11093,0 -0.2074,0.03858 -0.0941,0.03617 -0.13263,0.07717 0,0.04823 0.0217,0.142282 0.0241,0.09405 0.0241,0.173633 0,0.08441 -0.0772,0.15434 -0.0748,0.06994 -0.20981,0.06994 -0.12058,0 -0.17846,-0.08441 -0.0555,-0.08682 -0.0555,-0.192925 0,-0.110933 0.0772,-0.212218 0.0796,-0.101286 0.20498,-0.180868 0.10852,-0.06752 0.26286,-0.113343 0.15434,-0.04823 0.30145,-0.04823 0.20257,0 0.35209,0.02894 0.15193,0.02653 0.27492,0.118167 0.12299,0.08923 0.18569,0.243568 0.0651,0.151929 0.0651,0.393085 0,0.344854 -0.007,0.612538 -0.007,0.265273 -0.007,0.581188 0,0.09405 0.0314,0.149517 0.0338,0.05547 0.10129,0.09405 0.0362,0.0217 0.11334,0.02412 0.0796,0.0024 0.16157,0.0024 z m -0.84163,-1.273308 q -0.20499,0.06029 -0.35933,0.118167 -0.15434,0.05788 -0.28697,0.144694 -0.12058,0.08199 -0.19052,0.195337 -0.0699,0.110932 -0.0699,0.265273 0,0.20016 0.1037,0.294211 0.1061,0.09405 0.26768,0.09405 0.17122,0 0.30145,-0.08199 0.13022,-0.08441 0.21945,-0.197749 z" />
    <path
       inkscape:connector-curvature="0"
       id="path879"
       style="font-style:normal;font-variant:normal;font-weight:normal;font-stretch:normal;font-size:4.93888903px;line-height:1.25;font-family:Georgia;-inkscape-font-specification:Georgia;letter-spacing:0px;word-spacing:0px;fill:#5e5a5b;fill-opacity:1;stroke:none;stroke-width:0.26458332"
       d="m 114.53846,78.652849 q -0.15675,0.06511 -0.29662,0.10852 -0.13987,0.04582 -0.34244,0.04582 -0.29904,0 -0.42203,-0.149517 -0.12058,-0.151929 -0.12058,-0.426848 v -1.610926 h -0.42925 v -0.231511 h 0.4389 v -0.740351 h 0.43891 v 0.740351 h 0.68247 v 0.231511 h -0.67765 v 1.328773 q 0,0.149517 0.01,0.250803 0.012,0.09887 0.053,0.173633 0.0386,0.06994 0.11575,0.106109 0.0772,0.03617 0.2074,0.03617 0.0603,0 0.17604,-0.0096 0.11817,-0.01206 0.1664,-0.02894 z" />
    <path
       inkscape:connector-curvature="0"
       id="path881"
       style="font-style:normal;font-variant:normal;font-weight:normal;font-stretch:normal;font-size:4.93888903px;line-height:1.25;font-family:Georgia;-inkscape-font-specification:Georgia;letter-spacing:0px;word-spacing:0px;fill:#5e5a5b;fill-opacity:1;stroke:none;stroke-width:0.26458332"
       d="m 117.09472,77.543528 q 0,0.250803 -0.0796,0.494371 -0.0796,0.241157 -0.22669,0.409966 -0.16639,0.192926 -0.38585,0.286977 -0.21945,0.09405 -0.49196,0.09405 -0.22668,0 -0.43167,-0.0844 -0.20498,-0.08682 -0.36414,-0.250803 -0.15675,-0.161575 -0.25081,-0.393085 -0.0916,-0.233922 -0.0916,-0.52331 0,-0.557072 0.32315,-0.911572 0.32557,-0.354501 0.85129,-0.354501 0.49919,0 0.82234,0.33762 0.32556,0.335207 0.32556,0.894691 z m -0.49919,0.0048 q 0,-0.180868 -0.0362,-0.381028 -0.0362,-0.202571 -0.10852,-0.342442 -0.0772,-0.149517 -0.20258,-0.238745 -0.1254,-0.09164 -0.30627,-0.09164 -0.18569,0 -0.31832,0.09164 -0.13023,0.09164 -0.21222,0.250803 -0.0772,0.147105 -0.10852,0.335208 -0.0314,0.188102 -0.0314,0.364146 0,0.231511 0.0362,0.429259 0.0386,0.195337 0.12058,0.349677 0.082,0.154341 0.20498,0.243569 0.12541,0.08682 0.30868,0.08682 0.30145,0 0.47749,-0.2918 0.17605,-0.291799 0.17605,-0.805463 z" />
    <path
       inkscape:connector-curvature="0"
       id="path883"
       style="font-style:normal;font-variant:normal;font-weight:normal;font-stretch:normal;font-size:4.93888903px;line-height:1.25;font-family:Georgia;-inkscape-font-specification:Georgia;letter-spacing:0px;word-spacing:0px;fill:#5e5a5b;fill-opacity:1;stroke:none;stroke-width:0.26458332"
       d="m 120.06577,78.756546 h -1.16478 v -0.159163 q 0.0555,-0.0048 0.12058,-0.0096 0.0675,-0.0048 0.11093,-0.01929 0.0675,-0.0217 0.0989,-0.07476 0.0338,-0.05547 0.0338,-0.142282 v -1.222665 q 0,-0.253214 -0.12057,-0.390673 -0.11817,-0.13746 -0.28939,-0.13746 -0.12782,0 -0.23392,0.041 -0.10611,0.03858 -0.18811,0.09646 -0.0796,0.05547 -0.12781,0.120578 -0.0458,0.0627 -0.0675,0.101286 v 1.367358 q 0,0.08199 0.0338,0.135048 0.0338,0.05305 0.10128,0.08199 0.0507,0.02412 0.10853,0.03617 0.0603,0.01206 0.12299,0.01688 v 0.159163 h -1.16479 v -0.159163 q 0.0555,-0.0048 0.11334,-0.0096 0.0603,-0.0048 0.1037,-0.01929 0.0675,-0.0217 0.0989,-0.07476 0.0338,-0.05547 0.0338,-0.142282 v -1.468644 q 0,-0.08199 -0.0362,-0.149518 -0.0338,-0.06994 -0.0965,-0.113343 -0.0458,-0.02894 -0.10852,-0.041 -0.0627,-0.01447 -0.13505,-0.01929 v -0.156752 l 0.79099,-0.05306 0.0338,0.03376 v 0.335208 h 0.0121 q 0.0579,-0.05788 0.1447,-0.137459 0.0868,-0.08199 0.16399,-0.132637 0.0892,-0.05788 0.21221,-0.09646 0.12299,-0.03858 0.27733,-0.03858 0.34245,0 0.50643,0.214629 0.1664,0.212218 0.1664,0.566718 v 1.237134 q 0,0.08441 0.0289,0.13746 0.0289,0.05064 0.0989,0.07958 0.0579,0.02412 0.0989,0.03376 0.0434,0.0096 0.11816,0.01447 z" />
    <path
       inkscape:connector-curvature="0"
       id="path885"
       style="font-style:normal;font-variant:normal;font-weight:normal;font-stretch:normal;font-size:4.93888903px;line-height:1.25;font-family:Georgia;-inkscape-font-specification:Georgia;letter-spacing:0px;word-spacing:0px;fill:#5e5a5b;fill-opacity:1;stroke:none;stroke-width:0.26458332"
       d="m 122.40017,78.510566 q 0.0965,0.09164 0.15193,0.207395 0.0555,0.115755 0.0555,0.286976 0,0.171222 -0.0748,0.320739 -0.0748,0.151929 -0.22669,0.262861 -0.16157,0.113343 -0.38585,0.176044 -0.22428,0.0627 -0.55466,0.0627 -0.54019,0 -0.80788,-0.159164 -0.26768,-0.156752 -0.26768,-0.460609 0,-0.24598 0.19293,-0.388262 0.19292,-0.142283 0.49196,-0.154341 v -0.03376 q -0.0724,-0.0217 -0.14952,-0.05306 -0.0772,-0.03376 -0.13264,-0.07717 -0.0627,-0.05064 -0.10128,-0.118167 -0.0386,-0.06994 -0.0386,-0.171221 0,-0.127813 0.0892,-0.233922 0.0916,-0.108521 0.27492,-0.185691 v -0.03617 q -0.23151,-0.108521 -0.35933,-0.27733 -0.12781,-0.171222 -0.12781,-0.395497 0,-0.33762 0.2508,-0.554661 0.25322,-0.217041 0.6463,-0.217041 0.10852,0 0.21463,0.0217 0.10852,0.0217 0.21946,0.05547 h 0.82958 v 0.231511 h -0.55949 v 0.01447 q 0.0892,0.103698 0.13264,0.229099 0.0434,0.125401 0.0434,0.24598 0,0.313504 -0.25563,0.530545 -0.25321,0.217041 -0.59083,0.217041 h -0.2918 q -0.0555,0.01929 -0.11576,0.06994 -0.0603,0.05064 -0.0603,0.137459 0,0.08923 0.0507,0.13746 0.0506,0.04582 0.12298,0.0627 0.0699,0.01929 0.16158,0.02412 0.094,0.0048 0.19293,0.0072 0.1061,0.0024 0.28938,0.01447 0.18569,0.01206 0.26286,0.01447 0.11094,0.0048 0.22187,0.05305 0.11334,0.04823 0.20498,0.132636 z M 121.74905,77.0998 q 0,-0.282154 -0.11576,-0.448552 -0.11334,-0.16881 -0.32074,-0.16881 -0.11334,0 -0.19533,0.04823 -0.0796,0.04582 -0.13023,0.132636 -0.0482,0.07958 -0.0699,0.192925 -0.0193,0.110932 -0.0193,0.229099 0,0.267684 0.11575,0.436494 0.11817,0.168809 0.30386,0.168809 0.20739,0 0.31832,-0.166398 0.11335,-0.168809 0.11335,-0.424435 z m 0.46302,1.994365 q 0,-0.135047 -0.0627,-0.221864 -0.0627,-0.08682 -0.19052,-0.118167 -0.0675,-0.0096 -0.27733,-0.0217 -0.2098,-0.01206 -0.48713,-0.01206 -0.26045,0.05064 -0.37138,0.168809 -0.10852,0.120579 -0.10852,0.308681 0,0.08441 0.0362,0.161575 0.0362,0.07717 0.1254,0.142282 0.0844,0.0627 0.22669,0.101286 0.14228,0.041 0.34726,0.041 0.3545,0 0.55708,-0.13746 0.20498,-0.135047 0.20498,-0.412378 z" />
    <path
       inkscape:connector-curvature="0"
       id="path887"
       style="font-style:normal;font-variant:normal;font-weight:normal;font-stretch:normal;font-size:4.93888903px;line-height:1.25;font-family:Georgia;-inkscape-font-specification:Georgia;letter-spacing:0px;word-spacing:0px;fill:#5e5a5b;fill-opacity:1;stroke:none;stroke-width:0.26458332"
       d="m 125.13248,78.713138 q -0.11335,0.041 -0.20016,0.06511 -0.0844,0.02653 -0.19293,0.02653 -0.1881,0 -0.30144,-0.08682 -0.11094,-0.08923 -0.14229,-0.258038 h -0.0145 q -0.15675,0.173633 -0.33762,0.265273 -0.17845,0.09164 -0.43167,0.09164 -0.26768,0 -0.44131,-0.163986 -0.17122,-0.163987 -0.17122,-0.429259 0,-0.13746 0.0386,-0.24598 0.0386,-0.108521 0.11576,-0.195337 0.0603,-0.07235 0.15916,-0.127813 0.0989,-0.05788 0.18569,-0.09164 0.10852,-0.041 0.4389,-0.151928 0.3328,-0.110932 0.44856,-0.173633 v -0.238745 q 0,-0.03135 -0.0145,-0.120579 -0.0121,-0.08923 -0.0555,-0.168809 -0.0482,-0.08923 -0.13746,-0.154341 -0.0868,-0.06752 -0.24839,-0.06752 -0.11093,0 -0.20739,0.03858 -0.0941,0.03617 -0.13264,0.07717 0,0.04823 0.0217,0.142282 0.0241,0.09405 0.0241,0.173633 0,0.08441 -0.0772,0.15434 -0.0748,0.06994 -0.20981,0.06994 -0.12058,0 -0.17845,-0.08441 -0.0555,-0.08682 -0.0555,-0.192925 0,-0.110933 0.0772,-0.212218 0.0796,-0.101286 0.20498,-0.180868 0.10852,-0.06752 0.26286,-0.113343 0.15434,-0.04823 0.30145,-0.04823 0.20257,0 0.35209,0.02894 0.15193,0.02653 0.27492,0.118167 0.12299,0.08923 0.18569,0.243568 0.0651,0.151929 0.0651,0.393085 0,0.344854 -0.007,0.612538 -0.007,0.265273 -0.007,0.581188 0,0.09405 0.0314,0.149517 0.0338,0.05547 0.10129,0.09405 0.0362,0.0217 0.11334,0.02412 0.0796,0.0024 0.16158,0.0024 z m -0.84164,-1.273308 q -0.20498,0.06029 -0.35932,0.118167 -0.15434,0.05788 -0.28698,0.144694 -0.12058,0.08199 -0.19051,0.195337 -0.0699,0.110932 -0.0699,0.265273 0,0.20016 0.1037,0.294211 0.10611,0.09405 0.26768,0.09405 0.17122,0 0.30145,-0.08199 0.13022,-0.08441 0.21945,-0.197749 z" />
    <path
       inkscape:connector-curvature="0"
       id="path889"
       style="font-style:normal;font-variant:normal;font-weight:normal;font-stretch:normal;font-size:4.93888903px;line-height:1.25;font-family:Georgia;-inkscape-font-specification:Georgia;letter-spacing:0px;word-spacing:0px;fill:#5e5a5b;fill-opacity:1;stroke:none;stroke-width:0.26458332"
       d="m 129.94837,78.756546 h -0.9598 q -0.27733,-0.429259 -0.61736,-0.851283 -0.33762,-0.424436 -0.709,-0.822344 h -0.0627 v 1.191314 q 0,0.07958 0.0289,0.142282 0.0314,0.0627 0.11093,0.101286 0.0386,0.01688 0.14228,0.041 0.10611,0.02412 0.17605,0.02653 v 0.171221 h -1.42042 v -0.171221 q 0.0555,-0.0048 0.16158,-0.01447 0.10611,-0.0096 0.14952,-0.02894 0.0723,-0.03135 0.10369,-0.09164 0.0338,-0.0627 0.0338,-0.149517 v -2.469445 q 0,-0.08199 -0.0289,-0.142282 -0.0265,-0.06029 -0.10852,-0.09887 -0.0651,-0.03135 -0.15434,-0.05547 -0.0892,-0.02412 -0.15676,-0.02894 v -0.171221 h 1.42042 v 0.171221 q -0.0675,0.0024 -0.16881,0.0217 -0.10129,0.01929 -0.14952,0.03617 -0.082,0.02894 -0.11093,0.09646 -0.0289,0.06752 -0.0289,0.147106 v 1.181667 h 0.0482 q 0.21704,-0.183279 0.42685,-0.381027 0.2098,-0.20016 0.38102,-0.397909 0.19052,-0.219452 0.27734,-0.349677 0.0892,-0.132636 0.0892,-0.233922 0,-0.03617 -0.0458,-0.05788 -0.0434,-0.02412 -0.10128,-0.03859 -0.0675,-0.01447 -0.12058,-0.01688 -0.0531,-0.0048 -0.0868,-0.0072 v -0.171221 h 1.28296 v 0.171221 q -0.007,0 -0.0314,0.0024 -0.0241,0.0024 -0.0555,0.0048 -0.0338,0.0024 -0.0675,0.0096 -0.0338,0.0072 -0.0868,0.01688 -0.0844,0.01929 -0.17604,0.0627 -0.0892,0.041 -0.14711,0.103697 -0.24839,0.282153 -0.51849,0.583599 -0.27009,0.301446 -0.53537,0.549837 0.36656,0.41479 0.60531,0.713824 0.24115,0.299034 0.51125,0.639065 0.1037,0.130225 0.2074,0.209807 0.10369,0.07717 0.17845,0.115755 0.0627,0.03135 0.15675,0.04823 0.0941,0.01688 0.15675,0.01929 z" />
    <path
       inkscape:connector-curvature="0"
       id="path891"
       style="font-style:normal;font-variant:normal;font-weight:normal;font-stretch:normal;font-size:4.93888903px;line-height:1.25;font-family:Georgia;-inkscape-font-specification:Georgia;letter-spacing:0px;word-spacing:0px;fill:#5e5a5b;fill-opacity:1;stroke:none;stroke-width:0.26458332"
       d="m 132.25142,78.713138 q -0.11334,0.041 -0.20016,0.06511 -0.0844,0.02653 -0.19292,0.02653 -0.18811,0 -0.30145,-0.08682 -0.11093,-0.08923 -0.14228,-0.258038 h -0.0145 q -0.15675,0.173633 -0.33762,0.265273 -0.17846,0.09164 -0.43167,0.09164 -0.26768,0 -0.44132,-0.163986 -0.17122,-0.163987 -0.17122,-0.429259 0,-0.13746 0.0386,-0.24598 0.0386,-0.108521 0.11575,-0.195337 0.0603,-0.07235 0.15917,-0.127813 0.0989,-0.05788 0.18569,-0.09164 0.10852,-0.041 0.4389,-0.151928 0.3328,-0.110932 0.44855,-0.173633 v -0.238745 q 0,-0.03135 -0.0145,-0.120579 -0.012,-0.08923 -0.0555,-0.168809 -0.0482,-0.08923 -0.13746,-0.154341 -0.0868,-0.06752 -0.24839,-0.06752 -0.11094,0 -0.2074,0.03858 -0.0941,0.03617 -0.13263,0.07717 0,0.04823 0.0217,0.142282 0.0241,0.09405 0.0241,0.173633 0,0.08441 -0.0772,0.15434 -0.0747,0.06994 -0.2098,0.06994 -0.12058,0 -0.17846,-0.08441 -0.0555,-0.08682 -0.0555,-0.192925 0,-0.110933 0.0772,-0.212218 0.0796,-0.101286 0.20498,-0.180868 0.10852,-0.06752 0.26286,-0.113343 0.15434,-0.04823 0.30145,-0.04823 0.20257,0 0.35209,0.02894 0.15192,0.02653 0.27491,0.118167 0.12299,0.08923 0.18569,0.243568 0.0651,0.151929 0.0651,0.393085 0,0.344854 -0.007,0.612538 -0.007,0.265273 -0.007,0.581188 0,0.09405 0.0314,0.149517 0.0338,0.05547 0.10128,0.09405 0.0362,0.0217 0.11335,0.02412 0.0796,0.0024 0.16157,0.0024 z m -0.84163,-1.273308 q -0.20499,0.06029 -0.35933,0.118167 -0.15434,0.05788 -0.28697,0.144694 -0.12058,0.08199 -0.19052,0.195337 -0.0699,0.110932 -0.0699,0.265273 0,0.20016 0.10369,0.294211 0.10611,0.09405 0.26769,0.09405 0.17122,0 0.30144,-0.08199 0.13023,-0.08441 0.21946,-0.197749 z" />
    <path
       inkscape:connector-curvature="0"
       id="path893"
       style="font-style:normal;font-variant:normal;font-weight:normal;font-stretch:normal;font-size:4.93888903px;line-height:1.25;font-family:Georgia;-inkscape-font-specification:Georgia;letter-spacing:0px;word-spacing:0px;fill:#5e5a5b;fill-opacity:1;stroke:none;stroke-width:0.26458332"
       d="m 135.03678,78.713138 -0.77411,0.05305 -0.0362,-0.03376 v -0.301446 h -0.0145 q -0.0579,0.06029 -0.13022,0.130225 -0.0724,0.06752 -0.1664,0.12299 -0.10852,0.06511 -0.2098,0.09887 -0.10129,0.03376 -0.28698,0.03376 -0.31592,0 -0.48231,-0.204983 -0.16399,-0.207395 -0.16399,-0.60048 v -1.13826 q 0,-0.08682 -0.0338,-0.144694 -0.0314,-0.06029 -0.0941,-0.103697 -0.0434,-0.02894 -0.10852,-0.041 -0.0651,-0.01447 -0.13746,-0.01929 V 76.40768 l 0.7934,-0.05788 0.0362,0.03376 v 1.651924 q 0,0.258037 0.11575,0.388262 0.11576,0.130224 0.27733,0.130224 0.13264,0 0.23633,-0.041 0.1037,-0.041 0.17364,-0.09646 0.0651,-0.05064 0.11334,-0.106109 0.0506,-0.05788 0.0772,-0.106109 v -1.348066 q 0,-0.07958 -0.0338,-0.139871 -0.0338,-0.0627 -0.094,-0.106109 -0.0434,-0.02894 -0.13023,-0.03376 -0.0844,-0.0072 -0.19051,-0.01206 V 76.40768 l 0.86334,-0.05788 0.0362,0.03376 v 1.888257 q 0,0.08199 0.0338,0.139871 0.0338,0.05788 0.0941,0.09887 0.0434,0.02653 0.10369,0.03617 0.0603,0.0072 0.13264,0.0096 z" />
    <path
       inkscape:connector-curvature="0"
       id="path895"
       style="font-style:normal;font-variant:normal;font-weight:normal;font-stretch:normal;font-size:4.93888903px;line-height:1.25;font-family:Georgia;-inkscape-font-specification:Georgia;letter-spacing:0px;word-spacing:0px;fill:#5e5a5b;fill-opacity:1;stroke:none;stroke-width:0.26458332"
       d="m 137.50623,76.660894 q 0.14228,0.16881 0.21945,0.393086 0.0796,0.221864 0.0796,0.50884 0,0.282154 -0.0941,0.516076 -0.094,0.23151 -0.24839,0.395497 -0.16158,0.166398 -0.35933,0.255626 -0.19774,0.08923 -0.41961,0.08923 -0.21463,0 -0.35209,-0.04823 -0.13746,-0.04823 -0.22427,-0.113343 h -0.0193 V 79.3715 q 0,0.08682 0.0338,0.144694 0.0338,0.05788 0.10369,0.0844 0.0579,0.0217 0.16399,0.041 0.10852,0.0217 0.17846,0.02412 v 0.161575 h -1.32878 v -0.161575 q 0.0748,-0.0048 0.1447,-0.01206 0.0699,-0.0072 0.1254,-0.02412 0.0724,-0.02411 0.10128,-0.0844 0.0289,-0.06029 0.0289,-0.142282 v -2.529734 q 0,-0.07235 -0.0362,-0.139871 -0.0362,-0.06752 -0.0941,-0.10852 -0.0434,-0.02894 -0.12058,-0.04341 -0.0772,-0.01688 -0.14952,-0.0217 v -0.156752 l 0.81029,-0.05306 0.0338,0.02894 v 0.267684 l 0.0193,0.0048 q 0.12541,-0.144694 0.3111,-0.241157 0.18569,-0.09646 0.36897,-0.09646 0.22186,0 0.40514,0.09405 0.18569,0.09405 0.31833,0.253214 z m -0.39309,1.709801 q 0.0965,-0.149517 0.14228,-0.347265 0.0458,-0.197749 0.0458,-0.441317 0,-0.178456 -0.0386,-0.364147 -0.0386,-0.18569 -0.12058,-0.32315 -0.082,-0.139871 -0.21463,-0.226687 -0.13264,-0.08682 -0.31833,-0.08682 -0.17845,0 -0.30385,0.07958 -0.12541,0.07717 -0.21705,0.185691 v 1.405944 q 0.0217,0.06511 0.0699,0.135047 0.0506,0.06994 0.11093,0.120579 0.0748,0.06029 0.16158,0.09887 0.0868,0.03617 0.21221,0.03617 0.13505,0 0.26045,-0.06994 0.12541,-0.07235 0.20981,-0.202572 z" />
    <path
       inkscape:connector-curvature="0"
       id="path897"
       style="font-style:normal;font-variant:normal;font-weight:normal;font-stretch:normal;font-size:4.93888903px;line-height:1.25;font-family:Georgia;-inkscape-font-specification:Georgia;letter-spacing:0px;word-spacing:0px;fill:#5e5a5b;fill-opacity:1;stroke:none;stroke-width:0.26458332"
       d="m 140.41217,78.713138 q -0.11335,0.041 -0.20016,0.06511 -0.0844,0.02653 -0.19293,0.02653 -0.1881,0 -0.30145,-0.08682 -0.11093,-0.08923 -0.14228,-0.258038 h -0.0145 q -0.15675,0.173633 -0.33762,0.265273 -0.17845,0.09164 -0.43167,0.09164 -0.26768,0 -0.44131,-0.163986 -0.17122,-0.163987 -0.17122,-0.429259 0,-0.13746 0.0386,-0.24598 0.0386,-0.108521 0.11576,-0.195337 0.0603,-0.07235 0.15916,-0.127813 0.0989,-0.05788 0.18569,-0.09164 0.10852,-0.041 0.4389,-0.151928 0.3328,-0.110932 0.44856,-0.173633 v -0.238745 q 0,-0.03135 -0.0145,-0.120579 -0.0121,-0.08923 -0.0555,-0.168809 -0.0482,-0.08923 -0.13746,-0.154341 -0.0868,-0.06752 -0.24839,-0.06752 -0.11093,0 -0.20739,0.03858 -0.0941,0.03617 -0.13264,0.07717 0,0.04823 0.0217,0.142282 0.0241,0.09405 0.0241,0.173633 0,0.08441 -0.0772,0.15434 -0.0748,0.06994 -0.20981,0.06994 -0.12058,0 -0.17845,-0.08441 -0.0555,-0.08682 -0.0555,-0.192925 0,-0.110933 0.0772,-0.212218 0.0796,-0.101286 0.20498,-0.180868 0.10852,-0.06752 0.26286,-0.113343 0.15434,-0.04823 0.30145,-0.04823 0.20257,0 0.35209,0.02894 0.15193,0.02653 0.27492,0.118167 0.12299,0.08923 0.18569,0.243568 0.0651,0.151929 0.0651,0.393085 0,0.344854 -0.007,0.612538 -0.007,0.265273 -0.007,0.581188 0,0.09405 0.0313,0.149517 0.0338,0.05547 0.10129,0.09405 0.0362,0.0217 0.11334,0.02412 0.0796,0.0024 0.16158,0.0024 z m -0.84164,-1.273308 q -0.20498,0.06029 -0.35932,0.118167 -0.15434,0.05788 -0.28698,0.144694 -0.12058,0.08199 -0.19051,0.195337 -0.0699,0.110932 -0.0699,0.265273 0,0.20016 0.1037,0.294211 0.10611,0.09405 0.26768,0.09405 0.17122,0 0.30145,-0.08199 0.13022,-0.08441 0.21945,-0.197749 z" />
    <path
       inkscape:connector-curvature="0"
       id="path899"
       style="font-style:normal;font-variant:normal;font-weight:normal;font-stretch:normal;font-size:4.93888903px;line-height:1.25;font-family:Georgia;-inkscape-font-specification:Georgia;letter-spacing:0px;word-spacing:0px;fill:#5e5a5b;fill-opacity:1;stroke:none;stroke-width:0.26458332"
       d="m 142.82132,76.660894 q 0.14228,0.16881 0.21945,0.393086 0.0796,0.221864 0.0796,0.50884 0,0.282154 -0.0941,0.516076 -0.094,0.23151 -0.24839,0.395497 -0.16157,0.166398 -0.35932,0.255626 -0.19775,0.08923 -0.41961,0.08923 -0.21463,0 -0.35209,-0.04823 -0.13746,-0.04823 -0.22428,-0.113343 h -0.0193 V 79.3715 q 0,0.08682 0.0338,0.144694 0.0338,0.05788 0.1037,0.0844 0.0579,0.0217 0.16398,0.041 0.10852,0.0217 0.17846,0.02412 v 0.161575 h -1.32877 v -0.161575 q 0.0748,-0.0048 0.14469,-0.01206 0.0699,-0.0072 0.1254,-0.02412 0.0724,-0.02411 0.10129,-0.0844 0.0289,-0.06029 0.0289,-0.142282 v -2.529734 q 0,-0.07235 -0.0362,-0.139871 -0.0362,-0.06752 -0.094,-0.10852 -0.0434,-0.02894 -0.12058,-0.04341 -0.0772,-0.01688 -0.14951,-0.0217 v -0.156752 l 0.81028,-0.05306 0.0338,0.02894 v 0.267684 l 0.0193,0.0048 q 0.1254,-0.144694 0.31109,-0.241157 0.18569,-0.09646 0.36897,-0.09646 0.22186,0 0.40514,0.09405 0.18569,0.09405 0.31833,0.253214 z m -0.39309,1.709801 q 0.0965,-0.149517 0.14229,-0.347265 0.0458,-0.197749 0.0458,-0.441317 0,-0.178456 -0.0386,-0.364147 -0.0386,-0.18569 -0.12058,-0.32315 -0.082,-0.139871 -0.21463,-0.226687 -0.13263,-0.08682 -0.31832,-0.08682 -0.17846,0 -0.30386,0.07958 -0.1254,0.07717 -0.21704,0.185691 v 1.405944 q 0.0217,0.06511 0.0699,0.135047 0.0506,0.06994 0.11094,0.120579 0.0747,0.06029 0.16157,0.09887 0.0868,0.03617 0.21222,0.03617 0.13505,0 0.26045,-0.06994 0.1254,-0.07235 0.2098,-0.202572 z" />
    <path
       inkscape:connector-curvature="0"
       id="path901"
       style="font-style:normal;font-variant:normal;font-weight:normal;font-stretch:normal;font-size:4.93888903px;line-height:1.25;font-family:Georgia;-inkscape-font-specification:Georgia;letter-spacing:0px;word-spacing:0px;fill:#5e5a5b;fill-opacity:1;stroke:none;stroke-width:0.26458332"
       d="m 145.72726,78.713138 q -0.11335,0.041 -0.20016,0.06511 -0.0844,0.02653 -0.19293,0.02653 -0.1881,0 -0.30145,-0.08682 -0.11093,-0.08923 -0.14228,-0.258038 h -0.0145 q -0.15675,0.173633 -0.33762,0.265273 -0.17845,0.09164 -0.43167,0.09164 -0.26768,0 -0.44131,-0.163986 -0.17122,-0.163987 -0.17122,-0.429259 0,-0.13746 0.0386,-0.24598 0.0386,-0.108521 0.11576,-0.195337 0.0603,-0.07235 0.15916,-0.127813 0.0989,-0.05788 0.18569,-0.09164 0.10852,-0.041 0.4389,-0.151928 0.3328,-0.110932 0.44856,-0.173633 v -0.238745 q 0,-0.03135 -0.0145,-0.120579 -0.0121,-0.08923 -0.0555,-0.168809 -0.0482,-0.08923 -0.13746,-0.154341 -0.0868,-0.06752 -0.24839,-0.06752 -0.11093,0 -0.20739,0.03858 -0.0941,0.03617 -0.13264,0.07717 0,0.04823 0.0217,0.142282 0.0241,0.09405 0.0241,0.173633 0,0.08441 -0.0772,0.15434 -0.0748,0.06994 -0.20981,0.06994 -0.12058,0 -0.17845,-0.08441 -0.0555,-0.08682 -0.0555,-0.192925 0,-0.110933 0.0772,-0.212218 0.0796,-0.101286 0.20498,-0.180868 0.10852,-0.06752 0.26286,-0.113343 0.15434,-0.04823 0.30145,-0.04823 0.20257,0 0.35209,0.02894 0.15193,0.02653 0.27492,0.118167 0.12299,0.08923 0.18569,0.243568 0.0651,0.151929 0.0651,0.393085 0,0.344854 -0.007,0.612538 -0.007,0.265273 -0.007,0.581188 0,0.09405 0.0313,0.149517 0.0338,0.05547 0.10129,0.09405 0.0362,0.0217 0.11334,0.02412 0.0796,0.0024 0.16158,0.0024 z m -0.84164,-1.273308 q -0.20498,0.06029 -0.35932,0.118167 -0.15434,0.05788 -0.28698,0.144694 -0.12058,0.08199 -0.19051,0.195337 -0.0699,0.110932 -0.0699,0.265273 0,0.20016 0.1037,0.294211 0.10611,0.09405 0.26768,0.09405 0.17122,0 0.30145,-0.08199 0.13022,-0.08441 0.21945,-0.197749 z" />
    <path
       inkscape:connector-curvature="0"
       id="path903"
       style="font-style:normal;font-variant:normal;font-weight:normal;font-stretch:normal;font-size:4.93888903px;line-height:1.25;font-family:Georgia;-inkscape-font-specification:Georgia;letter-spacing:0px;word-spacing:0px;fill:#5e5a5b;fill-opacity:1;stroke:none;stroke-width:0.26458332"
       d="m 150.41293,78.756546 h -1.42523 v -0.171221 q 0.1881,-0.01206 0.31109,-0.04823 0.1254,-0.03617 0.1254,-0.08923 0,-0.0217 -0.005,-0.05305 -0.005,-0.03135 -0.0145,-0.05547 l -0.28457,-0.766878 h -1.19855 q -0.0675,0.168809 -0.11093,0.294211 -0.041,0.125401 -0.0748,0.23151 -0.0314,0.103698 -0.0434,0.16881 -0.012,0.06511 -0.012,0.106109 0,0.09646 0.15193,0.149517 0.15192,0.05306 0.34244,0.0627 v 0.171221 h -1.28778 v -0.171221 q 0.0627,-0.0048 0.15675,-0.02653 0.0941,-0.02412 0.15434,-0.0627 0.0965,-0.06511 0.14952,-0.135048 0.0531,-0.07235 0.1037,-0.197748 0.25804,-0.643889 0.56913,-1.446941 0.31109,-0.803051 0.55466,-1.430059 h 0.19292 l 1.14067,2.951758 q 0.0362,0.09405 0.082,0.151929 0.0458,0.05788 0.12781,0.113343 0.0555,0.03376 0.14469,0.05788 0.0892,0.0217 0.14952,0.02412 z m -1.37941,-1.398709 -0.51849,-1.326362 -0.50884,1.326362 z" />
    <path
       inkscape:connector-curvature="0"
       id="path905"
       style="font-style:normal;font-variant:normal;font-weight:normal;font-stretch:normal;font-size:4.93888903px;line-height:1.25;font-family:Georgia;-inkscape-font-specification:Georgia;letter-spacing:0px;word-spacing:0px;fill:#5e5a5b;fill-opacity:1;stroke:none;stroke-width:0.26458332"
       d="m 151.94669,78.652849 q -0.15675,0.06511 -0.29662,0.10852 -0.13987,0.04582 -0.34245,0.04582 -0.29903,0 -0.42202,-0.149517 -0.12058,-0.151929 -0.12058,-0.426848 v -1.610926 h -0.42926 v -0.231511 h 0.43891 v -0.740351 h 0.4389 v 0.740351 h 0.68248 v 0.231511 h -0.67765 v 1.328773 q 0,0.149517 0.01,0.250803 0.0121,0.09887 0.0531,0.173633 0.0386,0.06994 0.11575,0.106109 0.0772,0.03617 0.2074,0.03617 0.0603,0 0.17604,-0.0096 0.11817,-0.01206 0.1664,-0.02894 z" />
    <path
       inkscape:connector-curvature="0"
       id="path907"
       style="font-style:normal;font-variant:normal;font-weight:normal;font-stretch:normal;font-size:4.93888903px;line-height:1.25;font-family:Georgia;-inkscape-font-specification:Georgia;letter-spacing:0px;word-spacing:0px;fill:#5e5a5b;fill-opacity:1;stroke:none;stroke-width:0.26458332"
       d="m 154.43784,78.713138 q -0.11334,0.041 -0.20016,0.06511 -0.0844,0.02653 -0.19293,0.02653 -0.1881,0 -0.30144,-0.08682 -0.11093,-0.08923 -0.14228,-0.258038 h -0.0145 q -0.15676,0.173633 -0.33762,0.265273 -0.17846,0.09164 -0.43167,0.09164 -0.26769,0 -0.44132,-0.163986 -0.17122,-0.163987 -0.17122,-0.429259 0,-0.13746 0.0386,-0.24598 0.0386,-0.108521 0.11576,-0.195337 0.0603,-0.07235 0.15916,-0.127813 0.0989,-0.05788 0.18569,-0.09164 0.10852,-0.041 0.43891,-0.151928 0.33279,-0.110932 0.44855,-0.173633 v -0.238745 q 0,-0.03135 -0.0145,-0.120579 -0.0121,-0.08923 -0.0555,-0.168809 -0.0482,-0.08923 -0.13746,-0.154341 -0.0868,-0.06752 -0.24839,-0.06752 -0.11093,0 -0.20739,0.03858 -0.0941,0.03617 -0.13264,0.07717 0,0.04823 0.0217,0.142282 0.0241,0.09405 0.0241,0.173633 0,0.08441 -0.0772,0.15434 -0.0748,0.06994 -0.2098,0.06994 -0.12058,0 -0.17846,-0.08441 -0.0555,-0.08682 -0.0555,-0.192925 0,-0.110933 0.0772,-0.212218 0.0796,-0.101286 0.20499,-0.180868 0.10852,-0.06752 0.26286,-0.113343 0.15434,-0.04823 0.30144,-0.04823 0.20257,0 0.35209,0.02894 0.15193,0.02653 0.27492,0.118167 0.12299,0.08923 0.18569,0.243568 0.0651,0.151929 0.0651,0.393085 0,0.344854 -0.007,0.612538 -0.007,0.265273 -0.007,0.581188 0,0.09405 0.0314,0.149517 0.0338,0.05547 0.10129,0.09405 0.0362,0.0217 0.11334,0.02412 0.0796,0.0024 0.16158,0.0024 z M 153.5962,77.43983 q -0.20498,0.06029 -0.35932,0.118167 -0.15434,0.05788 -0.28698,0.144694 -0.12058,0.08199 -0.19051,0.195337 -0.0699,0.110932 -0.0699,0.265273 0,0.20016 0.1037,0.294211 0.10611,0.09405 0.26768,0.09405 0.17123,0 0.30145,-0.08199 0.13022,-0.08441 0.21945,-0.197749 z" />
    <path
       inkscape:connector-curvature="0"
       id="path909"
       style="font-style:normal;font-variant:normal;font-weight:normal;font-stretch:normal;font-size:4.93888903px;line-height:1.25;font-family:Georgia;-inkscape-font-specification:Georgia;letter-spacing:0px;word-spacing:0px;fill:#5e5a5b;fill-opacity:1;stroke:none;stroke-width:0.26458332"
       d="m 158.21676,76.533081 q -0.10128,0.0096 -0.21945,0.08441 -0.11576,0.07476 -0.16881,0.224276 -0.12058,0.3545 -0.2291,0.672827 -0.10611,0.315915 -0.23874,0.711412 -0.0434,0.125402 -0.0892,0.270096 -0.0434,0.144694 -0.0796,0.27733 h -0.2074 l -0.63906,-1.750798 -0.64389,1.750798 h -0.19775 q -0.18087,-0.535368 -0.3545,-1.061089 -0.17122,-0.528134 -0.30386,-0.918807 -0.0386,-0.113344 -0.1471,-0.178456 -0.10852,-0.06511 -0.20981,-0.07717 v -0.159163 h 1.06109 v 0.16881 q -0.0796,0.0024 -0.17363,0.02653 -0.0916,0.02412 -0.0916,0.07958 0,0.0096 0.007,0.041 0.01,0.03135 0.0217,0.06752 0.0772,0.253215 0.17363,0.566718 0.0989,0.311093 0.25321,0.810287 l 0.60772,-1.712213 h 0.23151 l 0.61977,1.688097 q 0.1037,-0.32315 0.20498,-0.624596 0.1037,-0.303857 0.18087,-0.569129 0.0169,-0.0627 0.0313,-0.113344 0.0169,-0.05306 0.0169,-0.103697 0,-0.04341 -0.0386,-0.07717 -0.0386,-0.03376 -0.0941,-0.05547 -0.0482,-0.01929 -0.10611,-0.02894 -0.0555,-0.0096 -0.082,-0.0096 v -0.15434 h 0.90434 z" />
    <path
       inkscape:connector-curvature="0"
       id="path911"
       style="font-style:normal;font-variant:normal;font-weight:normal;font-stretch:normal;font-size:4.93888903px;line-height:1.25;font-family:Georgia;-inkscape-font-specification:Georgia;letter-spacing:0px;word-spacing:0px;fill:#5e5a5b;fill-opacity:1;stroke:none;stroke-width:0.26458332"
       d="m 160.90325,78.756546 h -1.1672 v -0.159163 q 0.0555,-0.0048 0.12299,-0.0096 0.0675,-0.0048 0.11093,-0.01929 0.0675,-0.0217 0.0989,-0.07476 0.0338,-0.05547 0.0338,-0.142282 v -1.222665 q 0,-0.253214 -0.12058,-0.390673 -0.11817,-0.13746 -0.28939,-0.13746 -0.1254,0 -0.23392,0.041 -0.10611,0.03858 -0.19051,0.09646 -0.082,0.06029 -0.12541,0.120578 -0.0434,0.06029 -0.0675,0.101286 v 1.367358 q 0,0.08199 0.0314,0.135048 0.0338,0.05305 0.10129,0.08199 0.053,0.02412 0.10852,0.03617 0.0579,0.01206 0.1254,0.01688 v 0.159163 h -1.1672 v -0.159163 q 0.0555,-0.0048 0.11576,-0.0096 0.0603,-0.0072 0.10128,-0.01929 0.0675,-0.0217 0.10129,-0.07476 0.0338,-0.05547 0.0338,-0.142282 v -2.768479 q 0,-0.08199 -0.0386,-0.163987 -0.0362,-0.08199 -0.0965,-0.122989 -0.0434,-0.03135 -0.15434,-0.04341 -0.10852,-0.01447 -0.17604,-0.01929 v -0.154341 l 0.88022,-0.05547 0.0338,0.03617 v 1.659158 h 0.01 q 0.0796,-0.07958 0.14469,-0.139871 0.0651,-0.0627 0.17122,-0.130225 0.0916,-0.05788 0.21463,-0.09646 0.1254,-0.03858 0.27974,-0.03858 0.31833,0 0.48955,0.202571 0.17122,0.20016 0.17122,0.578776 v 1.237134 q 0,0.08441 0.0289,0.13746 0.0313,0.05064 0.10129,0.07958 0.0555,0.0217 0.0989,0.03376 0.0458,0.0096 0.11817,0.01447 z" />
    <path
       inkscape:connector-curvature="0"
       id="path913"
       style="font-style:normal;font-variant:normal;font-weight:normal;font-stretch:normal;font-size:4.93888903px;line-height:1.25;font-family:Georgia;-inkscape-font-specification:Georgia;letter-spacing:0px;word-spacing:0px;fill:#5e5a5b;fill-opacity:1;stroke:none;stroke-width:0.26458332"
       d="m 163.44745,78.713138 q -0.11334,0.041 -0.20016,0.06511 -0.0844,0.02653 -0.19292,0.02653 -0.18811,0 -0.30145,-0.08682 -0.11093,-0.08923 -0.14228,-0.258038 h -0.0145 q -0.15675,0.173633 -0.33762,0.265273 -0.17846,0.09164 -0.43167,0.09164 -0.26768,0 -0.44132,-0.163986 -0.17122,-0.163987 -0.17122,-0.429259 0,-0.13746 0.0386,-0.24598 0.0386,-0.108521 0.11575,-0.195337 0.0603,-0.07235 0.15916,-0.127813 0.0989,-0.05788 0.1857,-0.09164 0.10852,-0.041 0.4389,-0.151928 0.3328,-0.110932 0.44855,-0.173633 v -0.238745 q 0,-0.03135 -0.0145,-0.120579 -0.0121,-0.08923 -0.0555,-0.168809 -0.0482,-0.08923 -0.13746,-0.154341 -0.0868,-0.06752 -0.24839,-0.06752 -0.11094,0 -0.2074,0.03858 -0.0941,0.03617 -0.13264,0.07717 0,0.04823 0.0217,0.142282 0.0241,0.09405 0.0241,0.173633 0,0.08441 -0.0772,0.15434 -0.0747,0.06994 -0.2098,0.06994 -0.12058,0 -0.17846,-0.08441 -0.0555,-0.08682 -0.0555,-0.192925 0,-0.110933 0.0772,-0.212218 0.0796,-0.101286 0.20498,-0.180868 0.10852,-0.06752 0.26286,-0.113343 0.15434,-0.04823 0.30145,-0.04823 0.20257,0 0.35209,0.02894 0.15192,0.02653 0.27491,0.118167 0.12299,0.08923 0.18569,0.243568 0.0651,0.151929 0.0651,0.393085 0,0.344854 -0.007,0.612538 -0.007,0.265273 -0.007,0.581188 0,0.09405 0.0314,0.149517 0.0338,0.05547 0.10128,0.09405 0.0362,0.0217 0.11335,0.02412 0.0796,0.0024 0.16157,0.0024 z m -0.84163,-1.273308 q -0.20499,0.06029 -0.35933,0.118167 -0.15434,0.05788 -0.28697,0.144694 -0.12058,0.08199 -0.19052,0.195337 -0.0699,0.110932 -0.0699,0.265273 0,0.20016 0.10369,0.294211 0.10611,0.09405 0.26769,0.09405 0.17122,0 0.30144,-0.08199 0.13023,-0.08441 0.21946,-0.197749 z" />
    <path
       inkscape:connector-curvature="0"
       id="path915"
       style="font-style:normal;font-variant:normal;font-weight:normal;font-stretch:normal;font-size:4.93888903px;line-height:1.25;font-family:Georgia;-inkscape-font-specification:Georgia;letter-spacing:0px;word-spacing:0px;fill:#5e5a5b;fill-opacity:1;stroke:none;stroke-width:0.26458332"
       d="m 164.83893,78.756546 h -1.15032 v -0.159163 q 0.0555,-0.0048 0.11334,-0.0096 0.0603,-0.0048 0.1037,-0.01929 0.0675,-0.0217 0.0989,-0.07476 0.0338,-0.05547 0.0338,-0.142282 v -1.468644 q 0,-0.07717 -0.0362,-0.139871 -0.0338,-0.06511 -0.0965,-0.108521 -0.0458,-0.02894 -0.13263,-0.04823 -0.0868,-0.0217 -0.15917,-0.02653 v -0.156752 l 0.83923,-0.05306 0.0338,0.03376 v 1.9389 q 0,0.08441 0.0314,0.139871 0.0338,0.05547 0.1037,0.08199 0.053,0.0217 0.10369,0.03617 0.0506,0.01206 0.11335,0.01688 z m -0.30386,-3.344843 q 0,0.137459 -0.0916,0.241156 -0.0892,0.101286 -0.22186,0.101286 -0.12299,0 -0.21463,-0.09646 -0.0892,-0.09888 -0.0892,-0.224276 0,-0.132636 0.0892,-0.231511 0.0916,-0.09887 0.21463,-0.09887 0.13746,0 0.22427,0.09405 0.0892,0.09164 0.0892,0.21463 z" />
  </g>
</svg>
